<?xml version="1.0" encoding="utf-8"?>
<!-- Generator: Adobe Illustrator 21.0.0, SVG Export Plug-In . SVG Version: 6.00 Build 0)  -->
<svg version="1.1" id="圖層_1" xmlns="http://www.w3.org/2000/svg" xmlns:xlink="http://www.w3.org/1999/xlink" x="0px" y="0px"
	 viewBox="0 0 31 31" style="enable-background:new 0 0 31 31;" xml:space="preserve">
<style type="text/css">
	.st0{fill:#040000;}
</style>
<g>
	<path class="st0" d="M15.5,31C7,31,0,24,0,15.5S7,0,15.5,0S31,7,31,15.5S24,31,15.5,31z M15.5,1C7.5,1,1,7.5,1,15.5S7.5,30,15.5,30
		S30,23.5,30,15.5S23.5,1,15.5,1z"/>
</g>
<polygon class="st0" points="8,14.5 8,17.5 14,17.5 14,23.5 17,23.5 17,17.5 23,17.5 23,14.5 17,14.5 17,8.5 14,8.5 14,14.5 "/>
</svg>
