<?xml version="1.0" encoding="utf-8"?>
<!-- Generator: Adobe Illustrator 21.0.0, SVG Export Plug-In . SVG Version: 6.00 Build 0)  -->
<svg version="1.1" id="圖層_1" xmlns="http://www.w3.org/2000/svg" xmlns:xlink="http://www.w3.org/1999/xlink" x="0px" y="0px"
	 viewBox="0 0 203.2 203.2" style="enable-background:new 0 0 203.2 203.2;" xml:space="preserve">
<style type="text/css">
	.st0{fill:#0F0F0F;}
</style>
<path class="st0" d="M101.6,46.2C71,46.2,46.2,71,46.2,101.6c0,30.6,24.8,55.4,55.4,55.4c30.6,0,55.4-24.8,55.4-55.4
	C157,71,132.2,46.2,101.6,46.2z M101.6,138.5c-20.4,0-36.9-16.5-36.9-36.9c0-20.4,16.5-36.9,36.9-36.9c20.4,0,36.9,16.5,36.9,36.9
	C138.5,122,122,138.5,101.6,138.5z"/>
<path class="st0" d="M157,36.9c-5.1,0-9.2,4.1-9.2,9.2s4.1,9.2,9.2,9.2s9.2-4.1,9.2-9.2S162.1,36.9,157,36.9z"/>
<path class="st0" d="M197.2,30.3c-5.3-10.4-13.8-18.9-24.2-24.2c-11.9-6-27.4-6-58.4-6H88.7c-31,0-46.6,0-58.4,6
	C19.8,11.4,11.4,19.8,6,30.3C0,42.1,0,57.6,0,88.7v25.9c0,31,0,46.6,6,58.4c5.3,10.4,13.8,18.9,24.2,24.2c11.9,6,27.4,6,58.4,6h25.9
	c31,0,46.6,0,58.4-6c10.4-5.3,18.9-13.8,24.2-24.2c6-11.9,6-27.4,6-58.4V88.7C203.2,57.6,203.2,42.1,197.2,30.3z M184.7,114.5
	c0,15.8,0,26.6-0.7,34.9c-0.7,8.1-1.9,12.2-3.3,15.1c-3.5,7-9.2,12.6-16.1,16.1c-2.9,1.5-7,2.7-15.1,3.3c-8.3,0.7-19.1,0.7-34.9,0.7
	H88.7c-15.8,0-26.6,0-34.9-0.7c-8.1-0.7-12.2-1.9-15.1-3.3c-7-3.5-12.6-9.2-16.1-16.1c-1.5-2.9-2.7-7-3.3-15.1
	c-0.7-8.3-0.7-19.1-0.7-34.9V88.7c0-15.8,0-26.6,0.7-34.9c0.7-8.1,1.9-12.2,3.3-15.1c3.5-7,9.2-12.6,16.1-16.1
	c2.9-1.5,7-2.7,15.1-3.3c8.3-0.7,19.1-0.7,34.9-0.7h25.9c15.8,0,26.6,0,34.9,0.7c8.1,0.7,12.2,1.9,15.1,3.3
	c7,3.5,12.6,9.2,16.1,16.1c1.5,2.9,2.7,7,3.3,15.1c0.7,8.3,0.7,19.1,0.7,34.9V114.5z"/>
</svg>
