<?xml version="1.0" encoding="utf-8"?>
<!-- Generator: Adobe Illustrator 21.0.0, SVG Export Plug-In . SVG Version: 6.00 Build 0)  -->
<svg version="1.1" id="圖層_1" xmlns="http://www.w3.org/2000/svg" xmlns:xlink="http://www.w3.org/1999/xlink" x="0px" y="0px"
	 viewBox="0 0 25.4 26.9" style="enable-background:new 0 0 25.4 26.9;" xml:space="preserve">
<style type="text/css">
	.st0{stroke:#000000;stroke-miterlimit:10;}
</style>
<path class="st0" d="M12.6,26.2c0.3,0.3,0.8,0.3,1.1,0s0.3-0.8,0-1.1L3.1,14.2h21c0.4,0,0.8-0.4,0.8-0.8c0-0.4-0.3-0.8-0.8-0.8h-21
	L13.7,1.8C14,1.5,14,1,13.7,0.7s-0.8-0.3-1.1,0L0.5,13.1v0.5l0,0l0,0l0,0l0,0l0,0l0,0l0,0l0,0l0,0l0,0l0,0l0,0l0,0l0,0l0,0l0,0l0,0
	l0,0l0,0l0,0l0,0l0,0l0,0l0,0l0,0l0,0l0,0l0,0l0,0l0,0l0,0L12.6,26.2z"/>
</svg>
