<?xml version="1.0" encoding="utf-8"?>
<!-- Generator: Adobe Illustrator 21.0.0, SVG Export Plug-In . SVG Version: 6.00 Build 0)  -->
<svg version="1.1" id="圖層_1" xmlns="http://www.w3.org/2000/svg" xmlns:xlink="http://www.w3.org/1999/xlink" x="0px" y="0px"
	 viewBox="0 0 16 9" style="enable-background:new 0 0 16 9;" xml:space="preserve">
<path d="M12.6,8.6c-0.1,0.1-0.3,0.2-0.4,0.3C12.1,9,11.9,9,11.8,9c-0.1,0-0.2,0-0.4-0.1c-0.1-0.1-0.2-0.1-0.3-0.2
	c-0.1-0.1-0.2-0.2-0.2-0.3c-0.1-0.1-0.1-0.2-0.1-0.4c0-0.2,0-0.3,0.1-0.4c0.1-0.1,0.1-0.3,0.3-0.4l1.6-1.7H1.1
	c-0.4,0-0.6-0.1-0.8-0.3C0.1,5.1,0,4.8,0,4.5s0.1-0.6,0.3-0.8c0.2-0.2,0.5-0.3,0.8-0.3h11.6l-1.6-1.7c-0.1-0.1-0.2-0.3-0.3-0.4
	c-0.1-0.1-0.1-0.3-0.1-0.4c0-0.1,0-0.3,0.1-0.4c0.1-0.1,0.1-0.2,0.2-0.3c0.1-0.1,0.2-0.2,0.3-0.2C11.5,0,11.6,0,11.8,0
	c0.1,0,0.3,0,0.4,0.1c0.1,0.1,0.3,0.1,0.4,0.3l3,3.3c0.1,0.1,0.2,0.3,0.3,0.4C16,4.2,16,4.3,16,4.5s0,0.3-0.1,0.4
	c-0.1,0.1-0.2,0.3-0.3,0.4L12.6,8.6z"/>
</svg>
