<?xml version="1.0" encoding="utf-8"?>
<!-- Generator: Adobe Illustrator 21.0.0, SVG Export Plug-In . SVG Version: 6.00 Build 0)  -->
<svg version="1.1" id="圖層_1" xmlns="http://www.w3.org/2000/svg" xmlns:xlink="http://www.w3.org/1999/xlink" x="0px" y="0px"
	 viewBox="0 0 200 43" style="enable-background:new 0 0 200 43;" xml:space="preserve">
<style type="text/css">
	.st0{fill-rule:evenodd;clip-rule:evenodd;fill:#008742;}
	.st1{fill:#008742;}
</style>
<path class="st0" d="M191.8,31.6c0,0.3-0.1,0.5-0.3,0.7c-0.1,0.1-0.5,0.3-1.3,0.3h-0.7v-1.9h0.8c0.6,0,1,0.1,1.2,0.3
	C191.7,31.1,191.8,31.3,191.8,31.6z M193.7,35.5c-0.3-0.5-0.5-0.8-0.8-1.1c-0.1-0.1-0.2-0.1-0.2-0.2c0.6-0.2,1.1-0.5,1.4-0.9
	c0.4-0.5,0.7-1.2,0.7-1.9c0-0.9-0.3-1.7-0.9-2.2c-0.6-0.6-1.5-0.8-2.8-0.8h-4.5v10.4h2.9v-3.9l0,0c0.2,0,0.5,0.1,0.7,0.4
	c0.2,0.2,0.7,1,1.8,3.3l0.1,0.2h3.4l-0.2-0.4L193.7,35.5z"/>
<path class="st0" d="M197.7,33.5c0,2-0.7,3.6-2,5c-1.3,1.4-3,2.1-4.9,2.1s-3.5-0.7-4.9-2.1c-1.3-1.4-2-3.1-2-5s0.7-3.7,2-5
	c1.3-1.4,3-2.1,4.9-2.1s3.5,0.7,4.9,2.1C197,29.9,197.7,31.6,197.7,33.5z M198.8,28.8c-0.8-1.5-1.9-2.6-3.4-3.5s-3-1.3-4.6-1.3
	s-3.2,0.4-4.6,1.3s-2.5,2-3.4,3.5c-0.8,1.5-1.2,3.1-1.2,4.7c0,1.7,0.4,3.3,1.2,4.7c0.8,1.5,1.9,2.6,3.4,3.5s2.9,1.3,4.6,1.3
	s3.2-0.4,4.6-1.3s2.5-2,3.4-3.5c0.8-1.5,1.2-3,1.2-4.7S199.6,30.3,198.8,28.8z"/>
<polygon class="st1" points="0,0 36.5,0 36.5,10.5 24.2,10.5 24.2,42.4 12.2,42.4 12.2,10.5 0,10.5 "/>
<rect x="161.3" class="st1" width="12" height="42.4"/>
<polygon class="st1" points="112.1,0 124.1,0 124.1,16.1 136.7,0 152.6,0 138.5,16.1 153.2,42.4 138.5,42.4 130.3,25 124.1,32.1 
	124.1,42.4 112.1,42.4 "/>
<rect x="88" class="st1" width="11.8" height="42.4"/>
<path class="st0" d="M58.9,26.2h-4.3L58.9,11v0.1l4.3,15.1H58.9z M65.5,0h-6.7h-6.4L37.9,42.4h12.3l1.9-7h6.8h6.8l2,7h12.5L65.5,0z"
	/>
</svg>
